<?xml version="1.0" encoding="UTF-8"?><!DOCTYPE svg PUBLIC "-//W3C//DTD SVG 1.1//EN" "http://www.w3.org/Graphics/SVG/1.1/DTD/svg11.dtd"><svg xmlns="http://www.w3.org/2000/svg"><symbol id="arrow-circle" viewBox="0 0 18.6 18.6"><circle cx="9.3" cy="9.3" r="8.3" fill="none" stroke="#536eb3" stroke-miterlimit="10" stroke-width="2"/><path fill="none" stroke="#536eb3" stroke-linecap="round" stroke-linejoin="round" stroke-width="2" d="M8.5 6l2.9 3-2.9 2.9"/></symbol><symbol id="arrow-down" viewBox="0 0 10.19 6.14"><path fill="none" stroke="currentColor" stroke-linecap="round" stroke-linejoin="round" stroke-width="2" d="M1 1.09l4.05 4.05L9.19 1"/></symbol><symbol id="arrow-left" viewBox="0 0 6.24 10.48"><path fill="none" stroke="currentColor" stroke-linecap="round" stroke-linejoin="round" stroke-width="2" d="M5.24 1L1 5.24l4.24 4.24"/></symbol><symbol id="arrow-right" viewBox="0 0 6.24 10.48"><path fill="none" stroke="currentColor" stroke-linecap="round" stroke-linejoin="round" stroke-width="2" d="M1 1l4.24 4.24L1 9.48"/></symbol><symbol id="arrow-up" viewBox="0 0 10.19 6.14"><path d="M9.19 5.05L5.14 1 1 5.14" fill="none" stroke="currentColor" stroke-linecap="round" stroke-linejoin="round" stroke-width="2"/></symbol><symbol id="bag-icon-blue" viewBox="0 0 14 17"><path fill="#536eb3" stroke="#536eb3" stroke-linecap="round" stroke-linejoin="round" stroke-width="2" d="M12 5l1 11H1L2 5h10z"/><path d="M9 7V3a2 2 0 1 0-4 0v4" fill="none" stroke="#536eb3" stroke-linecap="round" stroke-linejoin="round" stroke-width="2"/></symbol><symbol id="bag-icon" viewBox="0 0 14 17"><path fill="none" stroke="currentColor" stroke-linecap="round" stroke-linejoin="round" stroke-width="2" d="M12 5l1 11H1L2 5h10z"/><path d="M9 7V3a2 2 0 1 0-4 0v4" fill="none" stroke="currentColor" stroke-linecap="round" stroke-linejoin="round" stroke-width="2"/></symbol><symbol id="bag" viewBox="0 0 34.19 47.78"><path d="M1.3 46c-3.8-2.4 1.7-26 4-29.2 2-2.6 24.2-3.3 25 0 3.3 13.4 5.2 30 2.8 30.5-4.4.6-28 1-31.7-1.3z" fill="#b0afaf"/><path d="M9.5 11.8c-.2-.3 1-9.7 7-10.7C23.8 0 26 8.4 26 12" fill="none" stroke="#c9c9c9" stroke-linecap="round" stroke-linejoin="round" stroke-width="2"/><path d="M12.3 23a4.7 4.7 0 0 0 .2 1.6 1 1 0 0 0 2-.6 3 3 0 0 1 0-1 1 1 0 0 0-1-1 1 1 0 0 0-1.2 1zm8.4-.3V24a1 1 0 0 0 1.2 1 1 1 0 0 0 1-1v-1.3a1 1 0 0 0-2.3 0zm-7.1 7.9c2.2 2.2 6.5 2.5 8.2-.4a.8.8 0 0 0-1.3-.8c-1.3 2-4.3 1.6-5.8 0a.8.8 0 0 0-1 1.2z" fill="#fff"/></symbol><symbol id="big-arrow" viewBox="0 0 16.3 14.6"><path fill="none" stroke="#536eb3" stroke-linecap="round" stroke-linejoin="round" stroke-width="2" d="M9 1l6.3 6.3L9 13.6"/><path fill="none" stroke="#536eb3" stroke-linecap="round" stroke-miterlimit="10" stroke-width="2" d="M13 7.2H1"/></symbol><symbol id="checkmark" viewBox="0 0 18.63 18.63"><circle cx="9.3" cy="9.3" r="8.3" fill="none" stroke="#536eb3" stroke-miterlimit="10" stroke-width="2"/><path fill="none" stroke="#536eb3" stroke-linecap="round" stroke-linejoin="round" stroke-width="2" d="M12.61 7.65l-4.37 4.37-2.36-2.28"/></symbol><symbol id="clock" viewBox="0 0 18.63 18.63"><circle cx="9.3" cy="9.3" r="8.3" fill="none" stroke="#536eb3" stroke-miterlimit="10" stroke-width="2"/><path fill="none" stroke="#536eb3" stroke-linecap="round" stroke-linejoin="round" stroke-width="2" d="M9.8 5v4l1.5 1.6"/></symbol><symbol id="document" viewBox="0 0 14 19"><path fill="none" stroke="#536eb3" stroke-linecap="round" stroke-linejoin="round" stroke-width="2" d="M13 1v14.2L10 18H1V1h12zM4 5h6M4 9h6"/><path fill="none" stroke="#536eb3" stroke-linecap="round" stroke-linejoin="round" stroke-width="2" d="M13 14H9v4"/></symbol><symbol id="edit" viewBox="0 0 15.91 15.91"><path fill="none" stroke="#536eb3" stroke-linecap="round" stroke-linejoin="round" stroke-width="2" d="M5 14.6L1 15l.4-4 10-10L15 4.5l-10 10zm3.5-10l2.8 2.8"/></symbol><symbol id="email-icon" viewBox="0 0 29.33 20.78"><path fill="none" stroke="currentColor" stroke-linecap="round" stroke-linejoin="round" stroke-width="2.4" d="M1.2 1.2h27v18.3H1z"/><path fill="none" stroke="currentColor" stroke-linecap="round" stroke-linejoin="round" stroke-width="2.4" d="M2 1.5L15 12 27.7 1.4"/></symbol><symbol id="eye" viewBox="0 0 18.6 12.7"><path d="M1 6.3S4.7 1 9.3 1s8.3 5.3 8.3 5.3-3.7 5.3-8.3 5.3S1 6.3 1 6.3z" fill="none" stroke="#536eb3" stroke-linecap="round" stroke-linejoin="round" stroke-width="2"/><circle cx="9.3" cy="6.3" r="2" fill="#536eb3"/></symbol><symbol id="facebook-mini" viewBox="0 0 8.87 8.87"><path d="M8.4 0h-8a.5.5 0 0 0-.4.5v8a.5.5 0 0 0 .5.4h4.2V5.3h-1V4h1V3a1.6 1.6 0 0 1 1.8-1.7 9 9 0 0 1 1 0v1.3h-.7a.6.6 0 0 0-.7.6v1h1.4v1.2H6V9h2.4a.5.5 0 0 0 .5-.6v-8a.5.5 0 0 0-.6-.4z" fill="currentColor"/></symbol><symbol id="group" viewBox="0 0 18 18"><path d="M6 2v4H2V2h4m0-2H2a2 2 0 0 0-2 2v4a2 2 0 0 0 2 2h4a2 2 0 0 0 2-2V2a2 2 0 0 0-2-2zM16 2v4h-4V2h4m0-2h-4a2 2 0 0 0-2 2v4a2 2 0 0 0 2 2h4a2 2 0 0 0 2-2V2a2 2 0 0 0-2-2zM6 12v4H2v-4h4m0-2H2a2 2 0 0 0-2 2v4a2 2 0 0 0 2 2h4a2 2 0 0 0 2-2v-4a2 2 0 0 0-2-2zM16 12v4h-4v-4h4m0-2h-4a2 2 0 0 0-2 2v4a2 2 0 0 0 2 2h4a2 2 0 0 0 2-2v-4a2 2 0 0 0-2-2z" fill="#536eb3"/></symbol><symbol id="key" viewBox="0 0 17.1 19.3"><path d="M7.4.9C10.1-.6 14.5-.4 16.3 3 20 10 9.8 15.9 5.9 8.9c-.8-1.5-1.2-6.6 1.5-8z" fill="#7f8d93"/><path d="M2.2 19.1c-.5.1-1.7.3-2.1 0s.1-2.2.2-2.4a2.7 2.7 0 0 0 1.3-.7c.2-.3-.2-1.3.1-1.7s1.3-.1 1.5-.5-.1-1.2.2-1.6a71.1 71.1 0 0 1 4.5-5.8c.6-.7 2.4.2 3.4 1.6S3.2 18.9 2.2 19.1z" fill="#7f8d93"/></symbol><symbol id="levels" viewBox="0 0 16 12"><path fill="none" stroke="#536eb3" stroke-linecap="round" stroke-miterlimit="10" stroke-width="2" d="M1 1h14M3 6h10M5 11h5"/></symbol><symbol id="list" viewBox="0 0 22 17"><path fill="none" stroke="#536eb3" stroke-linecap="round" stroke-linejoin="round" stroke-width="2" d="M16 6H1M16 11H1M16 16H1M1 1h15M21 6h-1M20 1h1M21 16h-1M21 11h-1"/></symbol><symbol id="lock" viewBox="0 0 13 18.4"><path fill="none" stroke="#536eb3" stroke-linecap="round" stroke-linejoin="round" stroke-width="2" d="M1 6.4h11v11H1zM9 6.4V3.8A2.6 2.6 0 0 0 6.5 1 2.6 2.6 0 0 0 4 3.8v2.6"/></symbol><symbol id="person" viewBox="0 0 17.46 19.32"><circle cx="8.7" cy="5.5" r="4.5" fill="none" stroke="#536eb3" stroke-miterlimit="10" stroke-width="2"/><path d="M16.46 18.32a7.91 7.91 0 0 0-7.73-7.73A7.91 7.91 0 0 0 1 18.32h15.46z" fill="none" stroke="#536eb3" stroke-miterlimit="10" stroke-width="2"/></symbol><symbol id="place" viewBox="0 0 11.48 18.71"><path d="M1 6.4c0 5.8 4.7 11.3 4.7 11.3s4.8-5.5 4.8-11.3C10.5 3.7 8.8 1 5.7 1S1 3.7 1 6.4z" fill="none" stroke="currentColor" stroke-linecap="round" stroke-linejoin="round" stroke-width="2"/><circle cx="5.7" cy="5.6" r="1.9" fill="currentColor"/></symbol><symbol id="plus" viewBox="0 0 18.63 18.63"><circle cx="9.3" cy="9.3" r="8.3" fill="none" stroke="currentColor" stroke-miterlimit="10" stroke-width="2"/><path fill="none" stroke="currentColor" stroke-linecap="round" stroke-linejoin="round" stroke-width="2" d="M5.5 9h8M9.4 5v8"/></symbol><symbol id="search" viewBox="0 0 39.12 43.36"><path d="M26.31 29.24a54.53 54.53 0 0 0 10.22 13.7c1.41 1.31 3.54-.81 2.12-2.12a51.93 51.93 0 0 1-9.75-13.1c-.9-1.72-3.54-.17-2.59 1.52zM16.38 2.95c6.16 1 12 6.73 10 13.31-1.71 5.61-4.94 14-12.51 12-5.44-1.43-9.9-7.6-10.63-12.89C2.25 8.54 10.52 3.1 16.78 3c1.93 0 1.93-3 0-3C9.8.11.56 5.64 0 13.17s6.51 17.27 14.35 18.2c9.17 1.09 12.6-7.13 14.85-14.31 2.5-8-4.26-15.8-12-17-1.91-.3-2.73 2.59-.82 2.89z" fill="#fff"/></symbol><symbol id="share" viewBox="0 0 22.04 23.04"><circle cx="17.5" cy="4.5" r="3.5" fill="none" stroke="currentColor" stroke-linecap="round" stroke-linejoin="round" stroke-width="2"/><circle cx="17.5" cy="18.5" r="3.5" fill="none" stroke="currentColor" stroke-linecap="round" stroke-linejoin="round" stroke-width="2"/><circle cx="4.5" cy="11.5" r="3.5" fill="none" stroke="currentColor" stroke-linecap="round" stroke-linejoin="round" stroke-width="2"/><path fill="none" stroke="currentColor" stroke-linecap="round" stroke-linejoin="round" stroke-width="2" d="M7.5 13.4l7.1 3.2M14 6.8L7.5 9.6"/></symbol><symbol id="singing-bird" viewBox="0 0 226.05 189.97"><path d="M136.7 88.3c-1-4.3 7.2-4 5.3-18.5-1.6-12.2-13.2-14.7-13.3-27.5 0-12.2 3.7-23.7 11.6-30.7S160.6 1.2 171.5.2c11.2-1 23 1.6 31.6 7.8 11.2 8 19 17.3 21.8 26.4 3.7 11.7-1.5 22.7-9.4 31-6 6.5-14 10.7-23 14.2s-18 5.3-26.6 6.5c-15 2.3-28.6 4.3-29 2.3z" fill="#e7324a"/><path d="M96.7 91.8s23-6.8 23-4-14.4 13-14.4 13 11.5 2.2 11 4.3-13.4 1.3-13.4 1.3zm28.6 72.7c1.2-3.3 7.7-2.4 13-.6 4.7 1.7 9.3 4.6 8.6 8.5-1 4-7.3 4.8-12.6 2.6s-10.3-7.2-9-10.5zM120 168c2.7-.3 4.3 4.2 4.8 8.2.5 3.7 0 7.7-2.7 8.5s-5.4-3-5.7-7.2 1.3-9.2 3.8-9.5zm-69.2 8c.8-5.6 0-11.4 1.2-17 .4-1.7-2.5-2.6-3-.7-1 5.5-.3 11.3-1 16.8-.4 2 2.5 2.8 2.7 1z" fill="#1c51a0"/><path d="M25 140.5c4.3-10 7.5-22 14.3-31 7.5-10.2 17-18.4 26-22.8 10.3-5 21.6-4.6 31.8 5a29.5 29.5 0 0 1 7.6 31.8c-3.7 10.3-14.3 17-24.3 22-10.2 5-14.3 10.4-25 12.2-7.3 1.2-18.5-2.8-26-3-6-.2-8.4-5.3-4.4-14.2z" fill="#e7324a"/><path d="M56 117.2c-.4 12.7-14.2 22.3-25.3 24.2-1.6.2-1 2.6.6 2.4 12.3-2 26.7-12.8 27.2-26.6 0-1.6-2.4-1.6-2.5 0zm26-19a5 5 0 0 1 4-3.7c2.7-.4 4 1.4 3.6 4-.2 1 1.2 1.3 1.4.3.6-2.7-.6-5.8-3.8-6a6.6 6.6 0 0 0-6.6 5c-.3 1 1 1.3 1.4.4z" fill="#fff"/><path d="M63 172c.8-4.7 0-9.5 1-14 .5-2-2.4-2.8-2.8-1-1 4.7-.2 9.5-1 14.2-.2 2 2.7 2.7 3 .8z" fill="#1c51a0"/><path d="M1.4 190c25-1.2 49-4.7 72.8-12.5 21-7 41.7-17.5 63.8-20.2 2-.2 2-3.2 0-3-21.2 2.6-41 12.3-61 19C52 182 27.4 185.8 1.4 187c-2 0-2 3 0 3z" fill="#1c51a0"/><path d="M163.3 56.2c-.8-2.2 2.8-4.6 6.2-6 3.2-1.3 6.8-1.8 8 .5s-1.4 5.5-5 6.8-8.3 1-9.2-1.3zM170 26c-.6-2.8 4-1.6 9-.3a66.8 66.8 0 0 0 9.6 1.8c3 .3-2.8 2.6-8.6 2.6-4.4 0-9.4-1.4-10-4z" fill="#fff"/><path d="M170 26c1.6 8.7 4 17.2 6.2 25.8a.8.8 0 0 0 1.5-.4c-2-8.6-4.7-17-6.4-25.8 0-1-1.6-.6-1.4.4z" fill="#fff"/></symbol><symbol id="star" viewBox="0 0 17.84 17.06"><path fill="none" stroke="#536eb3" stroke-linecap="round" stroke-linejoin="round" stroke-width="2" d="M9 1l2.4 5 5.4.8-4 3.8 1 5.5-5-2.5L4 16l1-5.4-4-3.8L6.5 6 9 1z"/></symbol><symbol id="toggle-off" viewBox="0 0 48.5 16.6"><path d="M40.2 16.6a8.3 8.3 0 1 0 0-16.6h-32A8.2 8.2 0 0 0 0 8.3a8.4 8.4 0 0 0 8.4 8.3h31.8z" fill="#1c51a0"/><circle cx="8.2" cy="8.3" r="7" fill="#e7ecef"/></symbol><symbol id="toggle-on" viewBox="0 0 48.5 16.6"><path d="M40.2 16.6a8.3 8.3 0 1 0 0-16.6h-32A8.2 8.2 0 0 0 0 8.3a8.4 8.4 0 0 0 8.4 8.3h31.8z" fill="#41babe"/><circle cx="40.2" cy="8.3" r="7" fill="#fff"/></symbol><symbol id="trash-bin" viewBox="0 0 16 20"><path fill="none" stroke="#536eb3" stroke-linecap="round" stroke-linejoin="round" stroke-width="2" d="M14 5v14H2V5M1 4h14M6 4V1h4v3M6 15V8M10 15V8"/></symbol><symbol id="upload" viewBox="0 0 17 18.24"><path fill="none" stroke="#536eb3" stroke-linecap="round" stroke-linejoin="round" stroke-width="2" d="M1 14.2v3h15v-3"/><path fill="none" stroke="#536eb3" stroke-linecap="round" stroke-miterlimit="10" stroke-width="2" d="M8 2.2v10"/><path fill="none" stroke="#536eb3" stroke-linecap="round" stroke-linejoin="round" stroke-width="2" d="M3.8 5.2L8 1l4.2 4.2"/></symbol><symbol id="x-mark" viewBox="0 0 18.63 18.63"><path fill="none" stroke="#536eb3" stroke-linecap="round" stroke-linejoin="round" stroke-width="2" d="M12.1 6.1l-5.8 5.8M12.1 11.9L6.3 6.1"/><circle cx="9.3" cy="9.3" r="8.3" fill="none" stroke="#536eb3" stroke-miterlimit="10" stroke-width="2"/></symbol></svg>